<svg width="20" height="12" viewBox="0 0 20 12" fill="none" xmlns="http://www.w3.org/2000/svg">
<path d="M19.8661 5.56982C19.2263 4.61877 15.7077 -0.153621 9.73011 0.000603428C4.2023 0.120556 1.00358 4.28461 0.133921 5.56982C0.046188 5.70007 0 5.84782 0 5.99822C0 6.14862 0.046188 6.29637 0.133921 6.42662C0.763671 7.36053 4.13233 11.9958 10.02 11.9958H10.2699C15.7977 11.8759 19.0064 7.71182 19.8661 6.42662C19.9538 6.29637 20 6.14862 20 5.99822C20 5.84782 19.9538 5.70007 19.8661 5.56982ZM10.2199 10.2822C5.91163 10.3679 3.10274 7.20631 2.22309 5.99822C3.22269 4.61877 5.83166 1.79989 9.83007 1.71421C14.1184 1.61996 16.9372 4.79013 17.8269 5.99822C16.7973 7.37767 14.2183 10.1965 10.2199 10.2822Z" fill="#636363"/>
<path d="M9.99983 2.99942C9.30787 2.99942 8.63145 3.1753 8.05611 3.50481C7.48077 3.83432 7.03234 4.30267 6.76754 4.85063C6.50274 5.39859 6.43345 6.00155 6.56845 6.58327C6.70344 7.16498 7.03665 7.69931 7.52594 8.1187C8.01523 8.5381 8.63862 8.8237 9.31729 8.93941C9.99595 9.05512 10.6994 8.99574 11.3387 8.76876C11.978 8.54179 12.5244 8.15743 12.9088 7.66428C13.2933 7.17112 13.4984 6.59134 13.4984 5.99823C13.4984 5.20289 13.1298 4.44014 12.4737 3.87775C11.8176 3.31537 10.9277 2.99942 9.99983 2.99942ZM9.99983 7.28343C9.70328 7.28343 9.41338 7.20806 9.16681 7.06684C8.92023 6.92562 8.72805 6.72489 8.61456 6.49005C8.50108 6.25521 8.47138 5.9968 8.52924 5.7475C8.58709 5.49819 8.7299 5.26919 8.93959 5.08945C9.14929 4.90971 9.41646 4.78731 9.70731 4.73772C9.99817 4.68813 10.2996 4.71358 10.5736 4.81085C10.8476 4.90813 11.0818 5.07286 11.2465 5.28421C11.4113 5.49556 11.4992 5.74404 11.4992 5.99823C11.4992 6.33908 11.3413 6.66598 11.0601 6.907C10.7789 7.14803 10.3975 7.28343 9.99983 7.28343Z" fill="#636363"/>
</svg>
